<?xml version="1.0" encoding="UTF-8" standalone="no"?>
<svg
   xmlns:dc="http://purl.org/dc/elements/1.1/"
   xmlns:cc="http://creativecommons.org/ns#"
   xmlns:rdf="http://www.w3.org/1999/02/22-rdf-syntax-ns#"
   xmlns:svg="http://www.w3.org/2000/svg"
   xmlns="http://www.w3.org/2000/svg"
   xmlns:sodipodi="http://sodipodi.sourceforge.net/DTD/sodipodi-0.dtd"
   xmlns:inkscape="http://www.inkscape.org/namespaces/inkscape"
   version="1.1"
   id="svg4593"
   viewBox="0 0 209.05498 56.692885"
   height="16mm"
   width="59mm"
   inkscape:version="0.91 r"
   sodipodi:docname="logo.svg">
  <sodipodi:namedview
     pagecolor="#ffffff"
     bordercolor="#666666"
     borderopacity="1"
     objecttolerance="10"
     gridtolerance="10"
     guidetolerance="10"
     inkscape:pageopacity="0"
     inkscape:pageshadow="2"
     inkscape:window-width="1315"
     inkscape:window-height="744"
     id="namedview26"
     showgrid="false"
     inkscape:zoom="2.5675509"
     inkscape:cx="92.384805"
     inkscape:cy="47.834646"
     inkscape:window-x="51"
     inkscape:window-y="24"
     inkscape:window-maximized="1"
     inkscape:current-layer="svg4593" />
  <defs
     id="defs4595">
    <clipPath
       id="clipPath340"
       clipPathUnits="userSpaceOnUse">
      <path
         id="path342"
         d="M 0,500 900,500 900,0 0,0 0,500 Z"
         inkscape:connector-curvature="0" />
    </clipPath>
  </defs>
  <metadata
     id="metadata4598">
    <rdf:RDF>
      <cc:Work
         rdf:about="">
        <dc:format>image/svg+xml</dc:format>
        <dc:type
           rdf:resource="http://purl.org/dc/dcmitype/StillImage" />
        <dc:title></dc:title>
      </cc:Work>
    </rdf:RDF>
  </metadata>
  <g
     transform="translate(-69.790564,-986.55744)"
     id="layer1">
    <g
       transform="matrix(1.25,0,0,-1.25,222.18705,1011.4167)"
       id="g344">
      <path
         id="path346"
         style="fill:#0c1d3c;fill-opacity:1;fill-rule:nonzero;stroke:none"
         d="m 0,0 c -0.621,0 -1.125,0.504 -1.125,1.125 l 0,6.75 C -1.125,8.496 -0.621,9 0,9 l 11.25,0 c 0.621,0 1.125,0.504 1.125,1.125 l 0,2.25 c 0,0.621 -0.504,1.125 -1.125,1.125 l -12.375,0 c -2.485,0 -4.5,-2.015 -4.5,-4.5 l 0,-9 c 0,-2.485 2.015,-4.5 4.5,-4.5 l 11.25,0 L 12.375,0 0,0 Z"
         inkscape:connector-curvature="0" />
    </g>
    <g
       transform="matrix(1.25,0,0,-1.25,126.56205,994.5417)"
       id="g348">
      <path
         id="path350"
         style="fill:#0c1d3c;fill-opacity:1;fill-rule:nonzero;stroke:none"
         d="m 0,0 -12.375,0 c -2.485,0 -4.5,-2.015 -4.5,-4.5 l 0,-9 c 0,-2.485 2.015,-4.5 4.5,-4.5 L 0,-18 c 0.621,0 1.125,0.504 1.125,1.125 l 0,2.25 c 0,0.621 -0.504,1.125 -1.125,1.125 l -11.25,0 c -0.621,0 -1.125,0.504 -1.125,1.125 l 0,6.75 c 0,0.621 0.504,1.125 1.125,1.125 L 0,-4.5 c 0.621,0 1.125,0.504 1.125,1.125 l 0,2.25 C 1.125,-0.504 0.621,0 0,0"
         inkscape:connector-curvature="0" />
    </g>
    <g
       transform="matrix(1.25,0,0,-1.25,134.99955,994.5417)"
       id="g352">
      <path
         id="path354"
         style="fill:#0c1d3c;fill-opacity:1;fill-rule:nonzero;stroke:none"
         d="m 0,0 -2.25,0 c -0.621,0 -1.125,-0.504 -1.125,-1.125 l 0,-15.75 c 0,-0.621 0.504,-1.125 1.125,-1.125 L 0,-18 c 0.621,0 1.125,0.504 1.125,1.125 l 0,15.75 C 1.125,-0.504 0.621,0 0,0"
         inkscape:connector-curvature="0" />
    </g>
    <g
       transform="matrix(1.25,0,0,-1.25,151.87455,1000.1667)"
       id="g356">
      <path
         id="path358"
         style="fill:#0c1d3c;fill-opacity:1;fill-rule:nonzero;stroke:none"
         d="m 0,0 -2.25,0 c -0.621,0 -1.125,-0.504 -1.125,-1.125 l 0,-1.125 -6.75,0 0,-4.5 6.75,0 0,-1.125 C -3.375,-8.496 -2.871,-9 -2.25,-9 L 0,-9 c 0.621,0 1.125,0.504 1.125,1.125 l 0,6.75 C 1.125,-0.504 0.621,0 0,0"
         inkscape:connector-curvature="0" />
    </g>
    <g
       transform="matrix(1.25,0,0,-1.25,247.49955,1000.1667)"
       id="g360">
      <path
         id="path362"
         style="fill:#0c1d3c;fill-opacity:1;fill-rule:nonzero;stroke:none"
         d="m 0,0 11.25,0 c 0.621,0 1.125,0.504 1.125,1.125 l 0,2.25 c 0,0.621 -0.504,1.125 -1.125,1.125 l -12.375,0 c -2.485,0 -4.5,-2.015 -4.5,-4.5 l 0,-4.5 c 0,-1.242 1.008,-2.25 2.25,-2.25 l 11.25,0 C 7.875,-7.992 6.867,-9 5.625,-9 l -11.25,0 -2.25,-4.5 11.25,0 c 4.193,0 7.717,2.869 8.716,6.75 0.177,0.683 0.274,1.398 0.281,2.134 0.002,0.039 0.003,0.077 0.003,0.116 0,1.243 -1.008,2.25 -2.25,2.25 l -11.25,0 0,1.125 C -1.125,-0.504 -0.621,0 0,0"
         inkscape:connector-curvature="0" />
    </g>
    <g
       transform="matrix(1.25,0,0,-1.25,210.93705,994.5417)"
       id="g364">
      <path
         id="path366"
         style="fill:#0c1d3c;fill-opacity:1;fill-rule:nonzero;stroke:none"
         d="m 0,0 -2.25,0 c -0.621,0 -1.125,-0.504 -1.125,-1.125 l 0,-15.75 c 0,-0.621 0.504,-1.125 1.125,-1.125 L 0,-18 c 0.621,0 1.125,0.504 1.125,1.125 l 0,15.75 C 1.125,-0.504 0.621,0 0,0"
         inkscape:connector-curvature="0" />
    </g>
    <g
       transform="matrix(1.25,0,0,-1.25,202.49955,994.5417)"
       id="g368">
      <path
         id="path370"
         style="fill:#0c1d3c;fill-opacity:1;fill-rule:nonzero;stroke:none"
         d="m 0,0 -2.25,0 c -0.621,0 -1.125,-0.504 -1.125,-1.125 l 0,-14.625 c 0,0.249 -0.04,0.488 -0.115,0.711 l -0.021,0.063 -0.492,1.476 -1.347,4.044 -0.373,1.116 -1.834,5.503 -0.318,0.953 -0.101,0.303 -0.014,0.042 C -8.288,-0.645 -9.131,0 -10.125,0 l -2.25,0 c -2.485,0 -4.5,-2.015 -4.5,-4.5 l 0,-12.375 c 0,-0.621 0.504,-1.125 1.125,-1.125 l 2.25,0 c 0.621,0 1.125,0.504 1.125,1.125 l 0,14.625 c 0,-0.249 0.04,-0.487 0.115,-0.711 l 0.021,-0.063 0.492,-1.476 1.347,-4.044 0.373,-1.116 1.834,-5.502 0.318,-0.954 0.101,-0.303 0.014,-0.042 C -7.462,-17.355 -6.619,-18 -5.625,-18 l 2.25,0 c 2.485,0 4.5,2.015 4.5,4.5 l 0,12.375 C 1.125,-0.504 0.621,0 0,0"
         inkscape:connector-curvature="0" />
    </g>
    <g
       transform="matrix(1.25,0,0,-1.25,101.24955,994.5417)"
       id="g372">
      <path
         id="path374"
         style="fill:#0c1d3c;fill-opacity:1;fill-rule:nonzero;stroke:none"
         d="m 0,0 -7.875,0 c -1.639,0 -3.176,-0.439 -4.5,-1.204 -1.366,-0.791 -2.505,-1.93 -3.296,-3.296 -0.765,-1.324 -1.204,-2.861 -1.204,-4.5 0,-1.639 0.439,-3.176 1.204,-4.5 0.791,-1.366 1.93,-2.505 3.296,-3.296 1.324,-0.765 2.861,-1.204 4.5,-1.204 L 0,-18 c 0.621,0 1.125,0.504 1.125,1.125 l 0,2.25 c 0,0.621 -0.504,1.125 -1.125,1.125 l -7.875,0 c -1.665,0 -3.117,0.905 -3.896,2.25 l 11.771,0 c 0.621,0 1.125,0.504 1.125,1.125 l 0,2.25 C 1.125,-7.254 0.621,-6.75 0,-6.75 l -11.771,0 c 0.779,1.345 2.231,2.25 3.896,2.25 L 0,-4.5 c 0.621,0 1.125,0.504 1.125,1.125 l 0,2.25 C 1.125,-0.504 0.621,0 0,0"
         inkscape:connector-curvature="0" />
    </g>
    <g
       transform="matrix(1.25,0,0,-1.25,173.30892,1011.7573)"
       id="g376">
      <path
         id="path378"
         style="fill:#0079c7;fill-opacity:1;fill-rule:nonzero;stroke:none"
         d="m 0,0 -1.59,1.59 c 1.756,1.758 1.756,4.608 0,6.365 L 0,9.545 C 2.636,6.91 2.636,2.635 0,0 M -7.955,1.59 -9.545,0 c -2.636,2.635 -2.636,6.91 0,9.545 l 1.59,-1.59 c -1.756,-1.757 -1.756,-4.607 0,-6.365 m -3.181,9.546 c -3.515,-3.514 -3.515,-9.213 0,-12.727 3.514,-3.515 9.213,-3.515 12.727,0 3.515,3.514 3.515,9.213 0,12.727 -3.514,3.515 -9.213,3.515 -12.727,0"
         inkscape:connector-curvature="0" />
    </g>
  </g>
  <text
     xml:space="preserve"
     style="font-style:normal;font-weight:normal;font-size:40px;line-height:125%;font-family:sans-serif;letter-spacing:0px;word-spacing:0px;fill:#0079c7;fill-opacity:1;stroke:#0079c7;stroke-width:0.49999976;stroke-linecap:butt;stroke-linejoin:miter;stroke-miterlimit:4;stroke-dasharray:none;stroke-opacity:1"
     x="173.27463"
     y="42.699451"
     id="text6045"
     sodipodi:linespacing="125%"><tspan
       sodipodi:role="line"
       id="tspan6047"
       x="173.27463"
       y="42.699451"
       style="font-style:normal;font-variant:normal;font-weight:normal;font-stretch:normal;font-size:12.49999428px;line-height:125%;font-family:Ubuntu;-inkscape-font-specification:'Ubuntu, Normal';text-align:start;writing-mode:lr-tb;text-anchor:start;fill:#0079c7;fill-opacity:1;stroke:#0079c7;stroke-width:0.49999976;stroke-miterlimit:4;stroke-dasharray:none;stroke-opacity:1">Blog</tspan></text>
</svg>
