<?xml version="1.0" encoding="utf-8"?>
<!-- Generator: Adobe Illustrator 17.0.0, SVG Export Plug-In . SVG Version: 6.00 Build 0)  -->
<!DOCTYPE svg PUBLIC "-//W3C//DTD SVG 1.1//EN" "http://www.w3.org/Graphics/SVG/1.1/DTD/svg11.dtd">
<svg version="1.1" id="Layer_1" xmlns="http://www.w3.org/2000/svg" xmlns:xlink="http://www.w3.org/1999/xlink" x="0px" y="0px"
	 width="1000px" height="1000px" viewBox="0 0 1000 1000" enable-background="new 0 0 1000 1000" xml:space="preserve">
<path fill="#255BA8" d="M266.316,266.316c-129.075,129.029-129.075,338.34,0,467.369c129.029,129.075,338.34,129.075,467.368,0
	c129.075-129.029,129.075-338.34,0-467.369C604.655,137.241,395.345,137.241,266.316,266.316z M383.135,616.865l-58.387,58.387
	c-96.806-96.76-96.806-253.743,0-350.504l58.387,58.387C318.643,447.672,318.643,552.328,383.135,616.865z M675.252,675.252
	l-58.387-58.387c64.492-64.537,64.492-169.193,0-233.73l58.387-58.387C772.058,421.508,772.058,578.492,675.252,675.252z"/>
</svg>
